<svg width="168.00000000000003" height="27" xmlns="http://www.w3.org/2000/svg" fill="none">
 <defs>
  <filter color-interpolation-filters="sRGB" filterUnits="userSpaceOnUse" height="1.00853" width="0.99596" y="1.27399" x="31.0008" id="filter0_d_2164_2166">
   <feGaussianBlur stdDeviation="0.17074"/>
  </filter>
  <filter color-interpolation-filters="sRGB" filterUnits="userSpaceOnUse" height="2.6164" width="2.58381" y="4.30758" x="4.39242" id="filter1_d_2164_2166">
   <feGaussianBlur stdDeviation="0.44295"/>
  </filter>
  <filter color-interpolation-filters="sRGB" filterUnits="userSpaceOnUse" height="2.6164" width="2.58381" y="16.6759" x="0.21029" id="filter2_d_2164_2166">
   <feGaussianBlur stdDeviation="0.44295"/>
  </filter>
  <filter color-interpolation-filters="sRGB" filterUnits="userSpaceOnUse" height="2.6164" width="2.58381" y="20.0711" x="24.2508" id="filter3_d_2164_2166">
   <feGaussianBlur stdDeviation="0.44295"/>
  </filter>
  <filter color-interpolation-filters="sRGB" filterUnits="userSpaceOnUse" height="1.00853" width="0.99596" y="13.9844" x="6.02961" id="filter4_d_2164_2166">
   <feGaussianBlur stdDeviation="0.17074"/>
  </filter>
  <filter color-interpolation-filters="sRGB" filterUnits="userSpaceOnUse" height="1.58484" width="1.56494" y="0.46338" x="11.7417" id="filter5_d_2164_2166">
   <feGaussianBlur stdDeviation="0.26831"/>
  </filter>
  <filter color-interpolation-filters="sRGB" filterUnits="userSpaceOnUse" height="4.71879" width="4.62028" y="9.55252" x="0.73234" id="filter6_d_2164_2166">
   <feGaussianBlur stdDeviation="0.54081"/>
  </filter>
  <filter color-interpolation-filters="sRGB" filterUnits="userSpaceOnUse" height="11.4993" width="27.0439" y="12.6314" x="0.21631" id="filter7_f_2164_2166">
   <feGaussianBlur result="effect1_foregroundBlur_2164_2166" stdDeviation="0.1272"/>
  </filter>
  <filter color-interpolation-filters="sRGB" filterUnits="userSpaceOnUse" height="7.78802" width="7.65252" y="2.26113" x="20.2885" id="filter8_d_2164_2166">
   <feGaussianBlur stdDeviation="1.06523"/>
  </filter>
  <linearGradient y2="0.46758" x2="1.02364" y1="0.44829" x1="0.02939" id="paint1_linear_2164_2166">
   <stop stop-color="#26A4FF"/>
   <stop stop-color="#0D9AFF" offset="1"/>
  </linearGradient>
  <linearGradient y2="0.46764" x2="1.02382" y1="0.44828" x1="0.02963" id="paint2_linear_2164_2166">
   <stop stop-color="#26A4FF"/>
   <stop stop-color="#0D9AFF" offset="1"/>
  </linearGradient>
  <linearGradient y2="0.4675" x2="1.02382" y1="0.44831" x1="0.02963" id="paint3_linear_2164_2166">
   <stop stop-color="#26A4FF"/>
   <stop stop-color="#0D9AFF" offset="1"/>
  </linearGradient>
  <linearGradient y2="0.46768" x2="1.02389" y1="0.44826" x1="0.0298" id="paint4_linear_2164_2166">
   <stop stop-color="#26A4FF"/>
   <stop stop-color="#0D9AFF" offset="1"/>
  </linearGradient>
  <linearGradient y2="0.46775" x2="1.02383" y1="0.44871" x1="0.02965" id="paint5_linear_2164_2166">
   <stop stop-color="#26A4FF"/>
   <stop stop-color="#0D9AFF" offset="1"/>
  </linearGradient>
  <linearGradient y2="0.46759" x2="1.02379" y1="0.44828" x1="0.02968" id="paint6_linear_2164_2166">
   <stop stop-color="#26A4FF"/>
   <stop stop-color="#0D9AFF" offset="1"/>
  </linearGradient>
  <linearGradient y2="0.53558" x2="-0.02984" y1="0.37753" x1="0.9619" id="paint7_linear_2164_2166">
   <stop stop-color="#26A4FF"/>
   <stop stop-color="#0D9AFF" offset="1"/>
  </linearGradient>
  <linearGradient y2="0.9608" x2="1.0392" y1="0" x1="0" id="paint8_linear_2164_2166">
   <stop stop-color="#868CFF"/>
   <stop stop-color="#4318FF" offset="1"/>
  </linearGradient>
  <linearGradient y2="0.82649" x2="-0.02421" y1="1.11527" x1="0.01689" id="paint9_linear_2164_2166">
   <stop stop-color="#3F5FFF"/>
   <stop stop-opacity="0" stop-color="#3F5FFF" offset="1"/>
  </linearGradient>
  <linearGradient y2="0.82649" x2="-0.02421" y1="1.11526" x1="0.01689" id="paint10_linear_2164_2166">
   <stop stop-color="#1DA0FF"/>
   <stop stop-opacity="0.13" stop-color="#199FFF" offset="1"/>
  </linearGradient>
  <linearGradient y2="0.40326" x2="-0.01984" y1="0.51567" x1="0.97713" id="paint11_linear_2164_2166">
   <stop stop-color="#26A4FF"/>
   <stop stop-color="#0D9AFF" offset="1"/>
  </linearGradient>
 </defs>
 <g>
  <title>Layer 1</title>
  <g id="svg_2" filter="url(#filter0_d_2164_2166)">
   <path id="svg_3" fill="url(#paint1_linear_2164_2166)" d="m31.4988,1.94103c0.0864,0 0.1565,-0.07288 0.1565,-0.16278c0,-0.08989 -0.0701,-0.16277 -0.1565,-0.16277c-0.0864,0 -0.1565,0.07288 -0.1565,0.16277c0,0.0899 0.0701,0.16278 0.1565,0.16278z"/>
  </g>
  <g id="svg_4" filter="url(#filter1_d_2164_2166)">
   <path id="svg_5" fill="url(#paint2_linear_2164_2166)" d="m5.68436,6.03804c0.22425,0 0.40603,-0.18906 0.40603,-0.42228c0,-0.23322 -0.18178,-0.42228 -0.40603,-0.42228c-0.22425,0 -0.40604,0.18906 -0.40604,0.42228c0,0.23322 0.18179,0.42228 0.40604,0.42228z"/>
  </g>
  <g id="svg_6" filter="url(#filter2_d_2164_2166)">
   <path id="svg_7" fill="url(#paint3_linear_2164_2166)" d="m1.50223,18.4063c0.22425,0 0.40604,-0.189 0.40604,-0.4223c0,-0.2332 -0.18179,-0.4222 -0.40604,-0.4222c-0.22425,0 -0.40604,0.189 -0.40604,0.4222c0,0.2333 0.18179,0.4223 0.40604,0.4223z"/>
  </g>
  <g id="svg_8" filter="url(#filter3_d_2164_2166)">
   <path id="svg_9" fill="url(#paint4_linear_2164_2166)" d="m25.5428,21.8016c0.2242,0 0.406,-0.1891 0.406,-0.4223c0,-0.2332 -0.1818,-0.4223 -0.406,-0.4223c-0.2243,0 -0.4061,0.1891 -0.4061,0.4223c0,0.2332 0.1818,0.4223 0.4061,0.4223z"/>
  </g>
  <g id="svg_10" filter="url(#filter4_d_2164_2166)">
   <path id="svg_11" fill="url(#paint5_linear_2164_2166)" d="m6.52761,14.6515c0.08644,0 0.15651,-0.0729 0.15651,-0.1628c0,-0.0899 -0.07007,-0.1628 -0.15651,-0.1628c-0.08644,0 -0.15652,0.0729 -0.15652,0.1628c0,0.0899 0.07008,0.1628 0.15652,0.1628z"/>
  </g>
  <g id="svg_12" filter="url(#filter5_d_2164_2166)">
   <path id="svg_13" fill="url(#paint6_linear_2164_2166)" d="m12.5243,1.51158c0.1358,0 0.2459,-0.11452 0.2459,-0.25579c0,-0.14127 -0.1101,-0.25579 -0.2459,-0.25579c-0.1359,0 -0.246,0.11452 -0.246,0.25579c0,0.14127 0.1101,0.25579 0.246,0.25579z"/>
  </g>
  <g id="svg_14" filter="url(#filter6_d_2164_2166)">
   <path id="svg_15" fill="url(#paint7_linear_2164_2166)" d="m3.22758,12.9061c-0.08001,0.0126 -0.15445,-0.0382 -0.17812,-0.1231c-0.22188,-0.7541 -0.33857,-0.8456 -1.0642,-0.818c-0.08374,0.0025 -0.15746,-0.059 -0.16952,-0.1422c-0.01222,-0.0843 0.03995,-0.1633 0.12035,-0.1889c0.69404,-0.214 0.76877,-0.3178 0.78597,-1.1082c0.00205,-0.0877 0.05651,-0.1588 0.13541,-0.1712c0.08112,-0.0128 0.15445,0.0384 0.18034,0.1228c0.21949,0.7533 0.33618,0.8448 1.0607,0.8173c0.08613,-0.0017 0.1584,0.0579 0.1708,0.1433c0.01206,0.0831 -0.0379,0.1618 -0.12051,0.1878c-0.69483,0.2164 -0.76861,0.3189 -0.78359,1.1089c-0.0041,0.0893 -0.05984,0.1594 -0.13763,0.1715z"/>
  </g>
  <path id="svg_16" fill="url(#paint8_linear_2164_2166)" d="m16.6299,6.19353c-0.211,0.08289 -0.3516,0.29255 -0.3516,0.52655c0,0.234 0.1406,0.44356 0.3516,0.52645c1.6828,0.65665 3.0107,2.03767 3.6422,3.78787c0.0796,0.2193 0.2812,0.3657 0.5062,0.3657c0.225,0 0.4266,-0.1464 0.5062,-0.3657c0.6315,-1.7502 1.9594,-3.13122 3.6422,-3.78787c0.211,-0.08289 0.3516,-0.29245 0.3516,-0.52645c0,-0.234 -0.1406,-0.44366 -0.3516,-0.52655c-1.6828,-0.65665 -3.0107,-2.0377 -3.6422,-3.78787c-0.0796,-0.21937 -0.2812,-0.36562 -0.5062,-0.36562c-0.225,0 -0.4266,0.14625 -0.5062,0.36562c-0.6315,1.75017 -1.9594,3.13122 -3.6422,3.78787zm-5.7375,-0.58011c-0.1219,-0.27789 -0.3891,-0.45334 -0.6797,-0.45334c-0.29058,0 -0.55778,0.17545 -0.67968,0.45334c-1.59729,3.58664 -4.36894,6.46808 -7.81876,8.12668c-0.26719,0.1266 -0.43594,0.4045 -0.43594,0.7116c0,0.3072 0.16875,0.5801 0.43594,0.7069c3.44861,1.6565 6.22257,4.5394 7.81406,8.1267c0.1219,0.2779 0.3891,0.4533 0.67968,0.4533c0.2906,0 0.5578,-0.1754 0.6797,-0.4533c1.5945,-3.5905 4.3663,-6.4732 7.8187,-8.1316c0.2672,-0.1266 0.436,-0.4045 0.436,-0.7068c0,-0.3023 -0.1688,-0.5802 -0.436,-0.7068c-3.4492,-1.6552 -6.2212,-4.54014 -7.814,-8.12668zm9.3797,12.39218c-0.6315,1.7502 -1.9594,3.1312 -3.6422,3.7879c-0.211,0.0829 -0.3516,0.2926 -0.3516,0.5266c0,0.234 0.1406,0.4435 0.3516,0.5264c1.6828,0.6567 3.0107,2.0377 3.6422,3.7879c0.0796,0.2193 0.2812,0.3656 0.5062,0.3656c0.225,0 0.4266,-0.1463 0.5062,-0.3656c0.6315,-1.7502 1.9594,-3.1312 3.6422,-3.7879c0.211,-0.0829 0.3516,-0.2924 0.3516,-0.5264c0,-0.234 -0.1406,-0.4437 -0.3516,-0.5266c-1.6828,-0.6567 -3.0107,-2.0377 -3.6422,-3.7879c-0.0796,-0.2193 -0.2812,-0.3655 -0.5062,-0.3655c-0.225,0 -0.4266,0.1462 -0.5062,0.3655z"/>
  <path id="svg_17" stroke-width="0.54929" stroke="url(#paint9_linear_2164_2166)" d="m12.9717,16.0857c-7.16413,2.5876 -12.62859,5.713 -12.20523,6.9808c0.42336,1.2677 6.57422,0.1978 13.73833,-2.3898c7.1641,-2.5876 12.6286,-5.713 12.2052,-6.9807c-0.4234,-1.2678 -6.5742,-0.1979 -13.7383,2.3897z"/>
  <g id="svg_18" filter="url(#filter7_f_2164_2166)">
   <path id="svg_19" stroke-width="0.54929" stroke="url(#paint10_linear_2164_2166)" d="m12.9717,16.0855c-7.16413,2.5876 -12.62859,5.713 -12.20523,6.9807c0.42336,1.2678 6.57422,0.1979 13.73833,-2.3897c7.1641,-2.5876 12.6286,-5.713 12.2052,-6.9808c-0.4234,-1.2678 -6.5742,-0.1978 -13.7383,2.3898z"/>
  </g>
  <g id="svg_20" filter="url(#filter8_d_2164_2166)">
   <path id="svg_21" fill="url(#paint11_linear_2164_2166)" d="m23.872,7.36177c-0.1104,-0.01643 -0.1893,-0.1144 -0.1882,-0.23618c-0.0051,-1.08743 -0.1243,-1.25643 -1.0931,-1.51965c-0.1115,-0.0312 -0.1854,-0.1431 -0.1696,-0.25782c0.0161,-0.11637 0.1152,-0.19915 0.2311,-0.19978c0.9982,0.00395 1.1366,-0.10234 1.461,-1.13894c0.0362,-0.11497 0.1353,-0.18642 0.2442,-0.1702c0.112,0.01669 0.1893,0.11443 0.1912,0.23673c0.0024,1.08531 0.1215,1.25441 1.0888,1.51732c0.1144,0.03328 0.1871,0.14175 0.1709,0.25969c-0.0158,0.11471 -0.1119,0.19802 -0.2309,0.19822c-1.0002,-0.00104 -1.1368,0.1038 -1.4581,1.14088c-0.0395,0.11617 -0.1399,0.18574 -0.2473,0.16973z"/>
  </g>
  <text transform="matrix(1.57742 0 0 1.16449 -19.3048 0.799816)" stroke="null" xml:space="preserve" text-anchor="start" font-family="Noto Sans JP" font-size="24" id="svg_26" y="16.60448" x="34.32836" stroke-width="0" fill="#6100ff">AImage</text>
 </g>
</svg>